<svg height="512" viewBox="0 0 60 60" width="512" xmlns="http://www.w3.org/2000/svg"><g id="Page-1" fill="none" fill-rule="evenodd"><g id="040---Journal" fill-rule="nonzero" transform="translate(0 -1)"><path id="Shape" d="m45.44 4c-.0278518.07181822-.0512299.14529214-.07.22l-1.81 6.77-1.29 4.83-8.72 32.53c-.0315021.1070781-.0383399.2199011-.02.33.0020462.0921024.0189295.1832724.05.27l1.79 4.95 1.48 4.1h-21.85v-54z" fill="#e8edfc"/><path id="Shape" d="m15 4v54c-.0032948 1.1032019-.8967981 1.9967052-2 2h-6c-1.10320187-.0032948-1.9967052-.8967981-2-2v-5h3c1.10116878-.0081672 1.99183278-.8988312 2-2-.0032948-1.1032019-.89679813-1.9967052-2-2h-3v-9h3c1.10116878-.0081672 1.99183278-.8988312 2-2-.0032948-1.1032019-.89679813-1.9967052-2-2h-3v-10h3c1.10116878-.0081672 1.99183278-.8988312 2-2-.0032948-1.1032019-.89679813-1.9967052-2-2h-3v-9h3c1.10116878-.0081672 1.99183278-.8988312 2-2-.0032948-1.10320187-.89679813-1.9967052-2-2h-3v-5c.0032948-1.10320187.89679813-1.9967052 2-2h6c1.1032019.0032948 1.9967052.89679813 2 2z" fill="#e8edfc"/><g fill="#a4c2f7"><path id="Shape" d="m30.375 30.779-2.75-2.2c-.3653328-.2925003-.8846672-.2925003-1.25 0l-2.75 2.2c-.2999023.2401148-.7108485.2871903-1.0572813.1211157-.3464329-.1660745-.5670949-.5159333-.5677187-.9001157v-26h10v26c-.0006238.3841824-.2212858.7340412-.5677187.9001157-.3464328.1660746-.757379.1189991-1.0572813-.1211157z"/><path id="Shape" d="m10 11c-.00816722 1.1011688-.89883122 1.9918328-2 2h-5c-1.10320187-.0032948-1.9967052-.8967981-2-2-.00282307-.5305905.2101411-1.0395388.59-1.41.3704612-.3798589.87940947-.59282307 1.41-.59h5c1.10320187.0032948 1.9967052.89679813 2 2z"/><path id="Shape" d="m10 24c-.00816722 1.1011688-.89883122 1.9918328-2 2h-5c-1.10320187-.0032948-1.9967052-.8967981-2-2-.00282307-.5305905.2101411-1.0395388.59-1.41.3704612-.3798589.87940947-.5928231 1.41-.59h5c1.10320187.0032948 1.9967052.8967981 2 2z"/><path id="Shape" d="m10 38c-.00816722 1.1011688-.89883122 1.9918328-2 2h-5c-1.10320187-.0032948-1.9967052-.8967981-2-2-.00282307-.5305905.2101411-1.0395388.59-1.41.3704612-.3798589.87940947-.5928231 1.41-.59h5c1.10320187.0032948 1.9967052.8967981 2 2z"/><path id="Shape" d="m10 51c-.00816722 1.1011688-.89883122 1.9918328-2 2h-5c-1.10320187-.0032948-1.9967052-.8967981-2-2-.00282307-.5305905.2101411-1.0395388.59-1.41.3704612-.3798589.87940947-.5928231 1.41-.59h5c1.10320187.0032948 1.9967052.8967981 2 2z"/><path id="Shape" d="m57.09 14.61-1.3 4.83-13.52-3.62 1.29-4.83z"/></g><path id="Shape" d="m43.56 10.99-.2.749 10.73 2.871-1.098 4.081 2.798.749 1.3-4.83z" fill="#7facfa"/><path id="Shape" d="m55.79 19.44-2.79 10.42-5.93 22.12c-.0287401.1025685-.0725512.2003009-.13.29l-13.41-3.59c-.0183399-.1100989-.0115021-.2229219.02-.33l8.72-32.53z" fill="#e8edfc"/><path id="Shape" d="m42.27 15.82-.2.749 10.72 2.871-2.79 10.42-5.81 21.674 2.75.736c.0574488-.0896991.1012599-.1874315.13-.29l5.93-22.12 2.79-10.42z" fill="#cad9fc"/><path id="Shape" d="m42.74 55.86-2.53 2.14-2.03 1.71c-.1260398.1040078-.294951.1398615-.4523733.0960224-.1574224-.0438392-.2834884-.1618384-.3376267-.3160224l-.54-1.49-1.48-4.1z" fill="#a4c2f7"/><path id="Shape" d="m58.9 7.85-1.81 6.76-13.53-3.62 1.81-6.77c.0187701-.07470786.0421482-.14818178.07-.22.521303-1.47993422 2.0949564-2.30817289 3.61-1.9l7.73 2.07c1.6009214.4316979 2.5496366 2.07852412 2.12 3.68z" fill="#e8edfc"/><path id="Shape" d="m56.78 4.17-7.73-2.07c-.7177903-.19195835-1.4813265-.10997267-2.142.23l6.872 1.84c1.6009214.4316979 2.5496366 2.07852412 2.12 3.68l-1.609 6.011 2.8.749 1.809-6.76c.4296366-1.60147588-.5190786-3.2483021-2.12-3.68z" fill="#cad9fc"/><path id="Shape" d="m46.94 52.27c-.0525093.0790812-.116551.1498642-.19.21l-4.01 3.38-7.37-1.96-1.79-4.95c-.0310705-.0867276-.0479538-.1778976-.05-.27z" fill="#e8edfc"/><path id="Shape" d="m53 29.86v24.14c0 2.209139-1.790861 4-4 4h-8.79l2.53-2.14 4.01-3.38c.073449-.0601358.1374907-.1309188.19-.21.0574488-.0896991.1012599-.1874315.13-.29z" fill="#e8edfc"/><path id="Shape" d="m50 41.051v12.949c0 2.209139-1.790861 4-4 4h3c2.209139 0 4-1.790861 4-4v-24.14z" fill="#cad9fc"/><path id="Shape" d="m48.462 9.158c-.087815-.00038136-.1752101-.01214608-.26-.035-.5305304-.14522129-.8441771-.69164572-.702-1.223l.259-.965c.2852035-1.06343063 1.3762805-1.6963536 2.441-1.416l.966.258c.533507.14304177.8500417.69149294.707 1.22499999-.1430418.53350705-.6914929.85004173-1.225.70700001l-.965-.259-.26.966c-.1163553.43574515-.5099934.73967798-.961.742z" fill="#e8edfc"/><path id="Shape" d="m7 60h3c-1.10320187-.0032948-1.9967052-.8967981-2-2v-5h-2c-.80631139-.0033854-1.5317303-.4906258-1.83983461-1.2357575s-.13862704-1.6024026.42983461-2.1742425c.3704612-.3798589.87940947-.5928231 1.41-.59h2v-9h-2c-.80631139-.0033854-1.5317303-.4906258-1.83983461-1.2357575s-.13862704-1.6024026.42983461-2.1742425c.3704612-.3798589.87940947-.5928231 1.41-.59h2v-10h-2c-.80631139-.0033854-1.5317303-.4906258-1.83983461-1.2357575s-.13862704-1.6024026.42983461-2.1742425c.3704612-.3798589.87940947-.5928231 1.41-.59h2v-9h-2c-.80631139-.0033854-1.5317303-.4906258-1.83983461-1.2357575s-.13862704-1.6024026.42983461-2.1742425c.3704612-.3798589.87940947-.59282307 1.41-.59h2v-5c.0032948-1.10320187.89679813-1.9967052 2-2h-3c-1.10320187.0032948-1.9967052.89679813-2 2v5h-2c-.53059053-.00282307-1.0395388.2101411-1.41.59-.56846165.5718399-.73793892 1.4291108-.42983461 2.1742425s1.03352322 1.2323721 1.83983461 1.2357575h2v9h-2c-.53059053-.0028231-1.0395388.2101411-1.41.59-.56846165.5718399-.73793892 1.4291108-.42983461 2.1742425s1.03352322 1.2323721 1.83983461 1.2357575h2v10h-2c-.53059053-.0028231-1.0395388.2101411-1.41.59-.56846165.5718399-.73793892 1.4291108-.42983461 2.1742425s1.03352322 1.2323721 1.83983461 1.2357575h2v9h-2c-.53059053-.0028231-1.0395388.2101411-1.41.59-.56846165.5718399-.73793892 1.4291108-.42983461 2.1742425s1.03352322 1.2323721 1.83983461 1.2357575h2v5c.0032948 1.1032019.89679813 1.9967052 2 2z" fill="#fff"/><path id="Rectangle-path" d="m15 57h8v2h-8z" fill="#fff"/><path id="Shape" d="m19.02 59c-.5522847.0027614-1.0022386-.4427153-1.005-.995s.4427153-1.0022386.995-1.005h.01c.5522847 0 1 .4477153 1 1s-.4477153 1-1 1z" fill="#428dff"/><path id="Shape" d="m57.034 3.208-7.727-2.071c-1.7439011-.47603782-3.5886178.29091316-4.481 1.863h-29.01c-.4222546-1.19435087-1.5492146-1.99474861-2.816-2h-6c-1.65685425 0-3 1.34314575-3 3v4h-1c-1.65685425 0-3 1.34314575-3 3 0 1.6568542 1.34314575 3 3 3h1v7h-1c-1.65685425 0-3 1.3431458-3 3s1.34314575 3 3 3h1v8h-1c-1.65685425 0-3 1.3431458-3 3s1.34314575 3 3 3h1v7h-1c-1.6568542.0000001-2.99999987 1.3431458-2.99999987 3s1.34314567 2.9999999 2.99999987 3h1v4c0 1.6568542 1.34314575 3 3 3h6c1.6568542 0 3-1.3431458 3-3v-53h5v25c-.0002886.7690868.4404532 1.4702093 1.1336363 1.8033637.693183.3331545 1.5159955.2393156 2.1163637-.2413637l2.75-2.2 2.75 2.2c.6003682.4806793 1.4231807.5745182 2.1163637.2413637.6931831-.3331544 1.1339249-1.0342769 1.1336363-1.8033637v-25h11.131l-1.531 5.727-10.016 37.373c-.0868658.3976966-.0692959.8111078.051 1.2l2.787 7.7h-12.422c-.5522847 0-1 .4477153-1 1s.4477153 1 1 1h13.145l.3.834c.167065.4617388.5495483.8124731 1.024.939.1257644.0345067.2555876.0519958.386.052.3540995.0003252.6968036-.1251322.967-.354l1.747-1.471h8.431c2.7600532-.0033061 4.9966939-2.2399468 5-5v-24.014l2.756-10.286 1.294-4.829 1.812-6.762c.2751982-1.02493978.1318173-2.11723064-.3985797-3.03642299-.5303971-.91919235-1.4043312-1.58993567-2.4294203-1.86457701zm-9.763.061c.4594398-.26538158 1.0055025-.3373266 1.518-.2l7.728 2.07c.5126178.13711059.9497355.47231577 1.2151235.93182151.265388.45950573.3372898 1.00564177.1998765 1.51817849l-1.554 5.8-5.8-1.553-5.8-1.553 1.553-5.8c.1386288-.5139647.4771106-.95111024.94-1.214zm8.589 12.047-.776 2.9-8.693-2.329-2.9-.777.777-2.9 5.795 1.553zm-9.577 35.743-1.931-.517 4.918-18.356c.1430417-.5335071-.173493-1.0819582-.707-1.225-.5335071-.1430417-1.0819582.1734929-1.225.707l-4.918 18.357-3.865-1.035 2.072-7.732c.1211513-.3532612.0353618-.7445937-.2224628-1.0147743-.2578247-.2701807-.6447159-.3741815-1.0032574-.2696873-.3585416.1044942-.6289797.4000686-.7012798.7664616l-2.071 7.733-1.932-.517 8.278-30.916 1.932.518-4.918 18.353c-.1424732.5331923.1739486 1.0810004.707 1.224.0846917.0233384.1721515.0351119.26.035.4524951-.0005181.8482565-.3048238.965-.742l4.918-18.353 3.861 1.036-2.071 7.727c-.1424732.5331923.1739486 1.0810004.707 1.224.0846917.0233384.1721515.0351119.26.035.4521232-.00097.847353-.3051822.964-.742l2.072-7.727 1.931.518zm-3.783 3.701-6.37-1.694-1.063-2.941 9.815 2.628zm-40.5-43.76c0-.5522847.44771525-1 1-1h5c.55228475 0 1 .4477153 1 1s-.44771525 1-1 1h-5c-.55228475 0-1-.4477153-1-1zm0 13c0-.5522847.44771525-1 1-1h5c.55228475 0 1 .4477153 1 1s-.44771525 1-1 1h-5c-.55228475 0-1-.4477153-1-1zm0 14c0-.5522847.44771525-1 1-1h5c.55228475 0 1 .4477153 1 1s-.44771525 1-1 1h-5c-.55228475 0-1-.4477153-1-1zm0 13c0-.5522847.44771525-1 1-1h5c.55228475 0 1 .4477153 1 1s-.44771525 1-1 1h-5c-.55228475 0-1-.4477153-1-1zm11 8h-6c-.55228475 0-1-.4477153-1-1v-4h2c1.6568542-.0000001 2.9999999-1.3431458 2.9999999-3s-1.3431457-2.9999999-2.9999999-3h-2v-7h2c1.65685425 0 3-1.3431458 3-3s-1.34314575-3-3-3h-2v-8h2c1.65685425 0 3-1.3431458 3-3s-1.34314575-3-3-3h-2v-7h2c1.65685425 0 3-1.3431458 3-3 0-1.65685425-1.34314575-3-3-3h-2v-4c0-.55228475.44771525-1 1-1h6c.5522847 0 1 .44771525 1 1v54c0 .5522847-.4477153 1-1 1zm18.006-29h-.006l-2.75-2.2c-.729202-.5891558-1.770798-.5891558-2.5 0l-2.75 2.2v-25h8zm7.077 28.477-1.129-3.123 3.676.977zm13.917-4.477c0 1.6568542-1.3431458 3-3 3h-6.058l4.458-3.753c.3075951-.2675413.5306679-.6188288.642-1.011l3.958-14.786z" fill="#428dff"/></g></g></svg>