<?xml version="1.0" encoding="UTF-8" standalone="no"?> <svg id="Capa_1" enable-background="new 0 0 512.003 512.003" height="512" viewBox="0 0 512.003 512.003" width="512" xmlns="http://www.w3.org/2000/svg"><g><path d="m142.469 512.001c-3.058 0-6.065-.935-8.604-2.713-3.259-2.282-5.478-5.765-6.168-9.683l-12.353-70.059c-.643-3.644.084-7.396 2.041-10.537l176.891-283.889c2.251-3.614 5.933-6.1 10.126-6.839l134.426-23.703c8.162-1.436 15.938 4.009 17.377 12.167l55.567 315.138c1.438 8.159-4.01 15.938-12.168 17.377l-354.53 62.514c-.866.152-1.738.227-2.605.227z" fill="#ffd845"/><path d="m456.205 116.745c-1.438-8.158-9.215-13.603-17.377-12.167l-134.426 23.702c-4.193.739-7.875 3.226-10.126 6.839l-38.276 61.43v295.665l243.604-42.954c8.158-1.438 13.606-9.218 12.168-17.377z" fill="#ffcb00"/><path d="m362.743 504.276c-1.286 0-2.592-.167-3.892-.515l-347.733-93.175c-3.843-1.029-7.119-3.543-9.108-6.989-1.989-3.445-2.528-7.54-1.499-11.382l82.823-309.096c2.144-8.002 10.368-12.752 18.371-10.606l347.733 93.175c3.843 1.029 7.119 3.543 9.108 6.989s2.528 7.54 1.499 11.382l-82.822 309.096c-1.796 6.701-7.858 11.121-14.48 11.121z" fill="#ffe278"/><path d="m449.438 165.687-193.438-51.831v362.346l102.852 27.559c1.3.349 2.605.515 3.892.515 6.622 0 12.684-4.42 14.479-11.122l82.822-309.096c1.029-3.843.49-7.937-1.499-11.382s-5.266-5.959-9.108-6.989z" fill="#ffd845"/><g fill="#556e82"><path d="m352.375 314.881c-1.285 0-2.591-.167-3.892-.515l-231.822-62.117c-8.002-2.144-12.75-10.369-10.606-18.371s10.368-12.753 18.371-10.606l231.822 62.117c8.002 2.144 12.75 10.369 10.606 18.371-1.795 6.7-7.857 11.121-14.479 11.121z"/><path d="m367.903 256.925c-1.285 0-2.591-.167-3.892-.515l-231.821-62.117c-8.002-2.144-12.75-10.369-10.606-18.371s10.365-12.753 18.371-10.606l231.822 62.117c8.002 2.144 12.75 10.369 10.606 18.371-1.796 6.701-7.857 11.121-14.48 11.121z"/><path d="m336.845 372.836c-1.285 0-2.591-.167-3.892-.515l-231.822-62.117c-8.002-2.144-12.75-10.369-10.606-18.371s10.367-12.752 18.371-10.606l231.822 62.117c8.002 2.144 12.75 10.369 10.606 18.371-1.795 6.701-7.856 11.121-14.479 11.121z"/><path d="m93.367 339.183c-8.005-2.146-16.228 2.605-18.371 10.606-2.144 8.002 2.604 16.227 10.606 18.371l140.059 37.529c8.002 2.144 16.227-2.605 18.371-10.606 2.144-8.002-2.605-16.227-10.606-18.371z"/></g><path d="m356.248 285.388-100.248-26.861v31.058l92.483 24.781c1.301.349 2.606.515 3.892.515 6.623 0 12.684-4.42 14.479-11.122 2.144-8.002-2.604-16.227-10.606-18.371z" fill="#3c4655"/><path d="m371.776 227.433-115.776-31.023v31.058l108.012 28.942c1.301.349 2.606.515 3.892.515 6.623 0 12.684-4.42 14.479-11.122 2.144-8.001-2.605-16.226-10.607-18.37z" fill="#3c4655"/><path d="m340.718 343.344-84.718-22.701v31.058l76.954 20.62c1.301.349 2.606.515 3.892.515 6.623 0 12.684-4.42 14.479-11.122 2.144-8.001-2.605-16.226-10.607-18.37z" fill="#3c4655"/><path d="m255.988 184.956c-6.776 0-12.922-4.623-14.573-11.501l-23.014-95.853c-1.934-8.056 3.028-16.153 11.083-18.087 8.058-1.937 16.154 3.028 18.087 11.083l23.014 95.853c1.934 8.056-3.028 16.153-11.083 18.087-1.177.283-2.356.418-3.514.418z" fill="#fffbf4"/><path d="m256 105.702v79.254c1.155-.001 2.329-.135 3.502-.417 8.055-1.934 13.018-10.032 11.083-18.087z" fill="#f9f4c8"/><path d="m226 90.001c-24.813 0-45-20.187-45-45s20.187-45 45-45 45 20.187 45 45-20.187 45-45 45z" fill="#93c6ec"/><path d="m256 11.497v67.01c9.199-8.245 15-20.208 15-33.505s-5.801-25.26-15-33.505z" fill="#6ba7ff"/></g></svg>